<?xml version="1.0" encoding="iso-8859-1"?>
<!-- Generator: Adobe Illustrator 19.0.0, SVG Export Plug-In . SVG Version: 6.00 Build 0)  -->
<svg version="1.1" id="Layer_1" xmlns="http://www.w3.org/2000/svg" xmlns:xlink="http://www.w3.org/1999/xlink" x="0px" y="0px"
	 viewBox="0 0 512 512" style="enable-background:new 0 0 512 512;" xml:space="preserve">
<g>
	<g>
		<g>
			<path d="M332.8,409.6c-2.304,0-4.446-0.896-6.05-2.526c-3.319-3.362-8.721-3.396-12.075-0.094
				c-3.354,3.311-3.396,8.713-0.085,12.066c4.838,4.915,11.307,7.62,18.21,7.62c14.114,0,25.6-11.486,25.6-25.6v-34.133
				c0-14.114-11.486-25.6-25.6-25.6c-14.114,0-25.6,11.486-25.6,25.6v8.533h-76.8c-4.71,0-8.533,3.823-8.533,8.533
				s3.823,8.533,8.533,8.533h85.333c4.71,0,8.533-3.823,8.533-8.533v-17.067c0-4.702,3.831-8.533,8.533-8.533
				c4.702,0,8.533,3.831,8.533,8.533v34.133C341.333,405.769,337.502,409.6,332.8,409.6z"/>
			<path d="M384,392.533h68.267c4.71,0,8.533-3.823,8.533-8.533s-3.823-8.533-8.533-8.533H384c-4.71,0-8.533,3.823-8.533,8.533
				S379.29,392.533,384,392.533z"/>
			<path d="M196.267,307.2c-2.304,0-4.446-0.896-6.05-2.526c-3.311-3.362-8.721-3.396-12.075-0.094
				c-3.354,3.311-3.396,8.713-0.085,12.066c4.838,4.915,11.307,7.62,18.21,7.62c14.114,0,25.6-11.486,25.6-25.6v-34.133
				c0-14.114-11.486-25.6-25.6-25.6s-25.6,11.486-25.6,25.6v8.533h-8.533c-4.71,0-8.533,3.823-8.533,8.533s3.823,8.533,8.533,8.533
				H179.2c4.71,0,8.533-3.823,8.533-8.533v-17.067c0-4.702,3.831-8.533,8.533-8.533c4.702,0,8.533,3.831,8.533,8.533v34.133
				C204.8,303.369,200.969,307.2,196.267,307.2z"/>
			<path d="M418.133,85.333h34.133c4.71,0,8.533-3.823,8.533-8.533s-3.823-8.533-8.533-8.533h-34.133
				c-4.71,0-8.533,3.823-8.533,8.533S413.423,85.333,418.133,85.333z"/>
			<path d="M486.4,443.733c4.71,0,8.533-3.823,8.533-8.533V8.533c0-4.71-3.823-8.533-8.533-8.533s-8.533,3.823-8.533,8.533V435.2
				C477.867,439.91,481.69,443.733,486.4,443.733z"/>
			<path d="M452.267,273.067H435.2c-4.71,0-8.533,3.823-8.533,8.533s3.823,8.533,8.533,8.533h17.067c4.71,0,8.533-3.823,8.533-8.533
				S456.977,273.067,452.267,273.067z"/>
			<path d="M384,307.2c-2.304,0-4.446-0.896-6.05-2.526c-3.311-3.362-8.721-3.396-12.075-0.094
				c-3.354,3.311-3.396,8.713-0.085,12.066c4.838,4.915,11.307,7.62,18.21,7.62c14.114,0,25.6-11.486,25.6-25.6v-34.133
				c0-14.114-11.486-25.6-25.6-25.6s-25.6,11.486-25.6,25.6v8.533H247.467c-4.71,0-8.533,3.823-8.533,8.533s3.823,8.533,8.533,8.533
				h119.467c4.71,0,8.533-3.823,8.533-8.533v-17.067c0-4.702,3.831-8.533,8.533-8.533c4.702,0,8.533,3.831,8.533,8.533v34.133
				C392.533,303.369,388.702,307.2,384,307.2z"/>
			<path d="M59.733,187.733h187.733c4.71,0,8.533-3.823,8.533-8.533v-17.067c0-4.702,3.831-8.533,8.533-8.533
				c4.702,0,8.533,3.831,8.533,8.533v34.133c0,4.702-3.831,8.533-8.533,8.533c-2.295,0-4.446-0.896-6.05-2.526
				c-3.311-3.362-8.721-3.396-12.075-0.094c-3.354,3.311-3.396,8.713-0.085,12.066c4.838,4.915,11.307,7.62,18.21,7.62
				c14.114,0,25.6-11.486,25.6-25.6v-34.133c0-14.114-11.486-25.6-25.6-25.6s-25.6,11.486-25.6,25.6v8.533h-179.2
				c-4.71,0-8.533,3.823-8.533,8.533S55.023,187.733,59.733,187.733z"/>
			<path d="M59.733,290.133h34.133c4.71,0,8.533-3.823,8.533-8.533v-17.067c0-4.702,3.831-8.533,8.533-8.533
				c4.702,0,8.533,3.831,8.533,8.533v34.133c0,4.702-3.831,8.533-8.533,8.533c-2.295,0-4.446-0.896-6.05-2.526
				c-3.319-3.362-8.721-3.396-12.075-0.094c-3.354,3.311-3.396,8.713-0.085,12.066c4.838,4.915,11.307,7.62,18.21,7.62
				c14.114,0,25.6-11.486,25.6-25.6v-34.133c0-14.114-11.486-25.6-25.6-25.6s-25.6,11.486-25.6,25.6v8.533h-25.6
				c-4.71,0-8.533,3.823-8.533,8.533S55.023,290.133,59.733,290.133z"/>
			<path d="M59.733,392.533h102.4c4.71,0,8.533-3.823,8.533-8.533v-17.067c0-4.702,3.831-8.533,8.533-8.533
				c4.702,0,8.533,3.831,8.533,8.533v34.133c0,4.702-3.831,8.533-8.533,8.533c-2.304,0-4.446-0.896-6.05-2.526
				c-3.311-3.362-8.721-3.396-12.075-0.094c-3.354,3.311-3.396,8.713-0.085,12.066c4.838,4.915,11.307,7.62,18.21,7.62
				c14.114,0,25.6-11.486,25.6-25.6v-34.133c0-14.114-11.486-25.6-25.6-25.6s-25.6,11.486-25.6,25.6v8.533H59.733
				c-4.71,0-8.533,3.823-8.533,8.533S55.023,392.533,59.733,392.533z"/>
			<path d="M486.4,460.8H59.733c-4.71,0-8.533,3.823-8.533,8.533s3.823,8.533,8.533,8.533H486.4c6.869,0,8.431,4.693,8.533,8.533
				v8.533H17.067v-8.431c0.102-3.942,1.664-8.636,8.533-8.636c4.71,0,8.533-3.823,8.533-8.533V8.533C34.133,3.823,30.31,0,25.6,0
				c-4.71,0-8.533,3.823-8.533,8.533V462.02C4.702,465.835,0,477.85,0,486.4v17.067C0,508.177,3.823,512,8.533,512h494.933
				c4.71,0,8.533-3.823,8.533-8.533V486.4C512,476.109,505.182,460.8,486.4,460.8z"/>
			<path d="M59.733,85.333h136.533c4.71,0,8.533-3.823,8.533-8.533V59.733c0-4.702,3.831-8.533,8.533-8.533
				c4.702,0,8.533,3.831,8.533,8.533v34.133c0,4.702-3.831,8.533-8.533,8.533c-2.304,0-4.446-0.896-6.05-2.526
				c-3.311-3.362-8.721-3.396-12.075-0.094c-3.354,3.311-3.396,8.713-0.085,12.066c4.838,4.915,11.307,7.62,18.21,7.62
				c14.114,0,25.6-11.486,25.6-25.6V59.733c0-14.114-11.486-25.6-25.6-25.6c-14.114,0-25.6,11.486-25.6,25.6v8.533h-128
				c-4.71,0-8.533,3.823-8.533,8.533S55.023,85.333,59.733,85.333z"/>
			<path d="M264.533,85.333h85.333c4.71,0,8.533-3.823,8.533-8.533V59.733c0-4.702,3.831-8.533,8.533-8.533s8.533,3.831,8.533,8.533
				v34.133c0,4.702-3.831,8.533-8.533,8.533c-2.295,0-4.446-0.896-6.05-2.526c-3.311-3.362-8.721-3.396-12.075-0.094
				c-3.354,3.311-3.396,8.713-0.085,12.066c4.838,4.915,11.307,7.62,18.21,7.62c14.114,0,25.6-11.486,25.6-25.6V59.733
				c0-14.114-11.486-25.6-25.6-25.6s-25.6,11.486-25.6,25.6v8.533h-76.8c-4.71,0-8.533,3.823-8.533,8.533
				S259.823,85.333,264.533,85.333z"/>
			<path d="M452.267,170.667H315.733c-4.71,0-8.533,3.823-8.533,8.533s3.823,8.533,8.533,8.533h136.533
				c4.71,0,8.533-3.823,8.533-8.533S456.977,170.667,452.267,170.667z"/>
		</g>
	</g>
</g>
<g>
</g>
<g>
</g>
<g>
</g>
<g>
</g>
<g>
</g>
<g>
</g>
<g>
</g>
<g>
</g>
<g>
</g>
<g>
</g>
<g>
</g>
<g>
</g>
<g>
</g>
<g>
</g>
<g>
</g>
</svg>
