<?xml version="1.0" encoding="iso-8859-1"?>
<!-- Generator: Adobe Illustrator 19.0.0, SVG Export Plug-In . SVG Version: 6.00 Build 0)  -->
<svg version="1.1" id="Layer_1" xmlns="http://www.w3.org/2000/svg" xmlns:xlink="http://www.w3.org/1999/xlink" x="0px" y="0px"
	 viewBox="0 0 512 512" style="enable-background:new 0 0 512 512;" xml:space="preserve">
<g>
	<g>
		<g>
			<path d="M128,375.467h51.2c4.71,0,8.533-3.823,8.533-8.533s-3.823-8.533-8.533-8.533H128c-4.71,0-8.533,3.823-8.533,8.533
				S123.29,375.467,128,375.467z"/>
			<path d="M128,426.667h102.4c4.71,0,8.533-3.823,8.533-8.533s-3.823-8.533-8.533-8.533H128c-4.71,0-8.533,3.823-8.533,8.533
				S123.29,426.667,128,426.667z"/>
			<path d="M161.323,240.529c3.396,1.732,6.144,4.582,7.757,8.021c1.442,3.106,4.523,4.924,7.731,4.924
				c1.212,0,2.441-0.256,3.61-0.802c4.267-1.997,6.11-7.074,4.122-11.341c-3.209-6.869-8.704-12.553-15.462-16.009
				c-4.198-2.133-9.344-0.469-11.486,3.729C155.46,233.25,157.124,238.387,161.323,240.529z"/>
			<path d="M307.2,366.933c0-4.71-3.814-8.533-8.533-8.533h-85.333c-4.71,0-8.533,3.823-8.533,8.533s3.823,8.533,8.533,8.533h85.333
				C303.386,375.467,307.2,371.644,307.2,366.933z"/>
			<path d="M161.323,87.168c3.396,1.724,6.144,4.574,7.757,8.021c1.442,3.106,4.523,4.924,7.731,4.924
				c1.212,0,2.441-0.256,3.61-0.802c4.267-1.997,6.11-7.074,4.122-11.341c-3.209-6.878-8.704-12.561-15.462-16.009
				c-4.198-2.116-9.344-0.469-11.486,3.729C155.46,79.889,157.124,85.026,161.323,87.168z"/>
			<path d="M99.183,143.454c-6.229,6.101-13.85,17.306-13.85,35.746s7.62,29.645,13.85,35.746
				C90.53,226.389,85.333,240.58,85.333,256c0,17.246,6.477,32.973,17.067,45.005V332.8c0,4.71,3.823,8.533,8.533,8.533
				c4.71,0,8.533-3.823,8.533-8.533v-17.775c10.052,5.845,21.692,9.242,34.133,9.242c37.641,0,68.267-30.626,68.267-68.267
				c0-37.641-30.626-68.267-68.267-68.267c-16.094,0-30.882,5.632-42.564,14.985c-3.669-3.627-8.636-10.846-8.636-23.518
				c0-12.681,4.966-19.891,8.636-23.518c11.682,9.353,26.47,14.985,42.564,14.985c37.641,0,68.267-30.626,68.267-68.267
				c0-37.641-30.626-68.267-68.267-68.267c-12.442,0-24.081,3.396-34.133,9.233v-26.3h226.867L429.167,99.9
				c1.664,1.664,3.849,2.5,6.033,2.5c2.185,0,4.369-0.836,6.033-2.5c3.336-3.336,3.336-8.73,0-12.066L355.9,2.5
				c-1.596-1.604-3.763-2.5-6.033-2.5H110.933c-4.71,0-8.533,3.823-8.533,8.533v48.862C91.81,69.427,85.333,85.154,85.333,102.4
				C85.333,117.82,90.53,132.011,99.183,143.454z M153.6,51.2c28.237,0,51.2,22.963,51.2,51.2c0,28.237-22.963,51.2-51.2,51.2
				s-51.2-22.963-51.2-51.2C102.4,74.163,125.363,51.2,153.6,51.2z M153.6,204.8c28.237,0,51.2,22.963,51.2,51.2
				s-22.963,51.2-51.2,51.2s-51.2-22.963-51.2-51.2S125.363,204.8,153.6,204.8z"/>
			<path d="M392.533,366.933c0-4.71-3.814-8.533-8.533-8.533h-51.2c-4.719,0-8.533,3.823-8.533,8.533s3.814,8.533,8.533,8.533H384
				C388.719,375.467,392.533,371.644,392.533,366.933z"/>
			<path d="M384,204.8h-68.267c-4.719,0-8.533,3.823-8.533,8.533c0,4.71,3.814,8.533,8.533,8.533H384
				c4.719,0,8.533-3.823,8.533-8.533C392.533,208.623,388.719,204.8,384,204.8z"/>
			<path d="M264.533,426.667h85.333c4.719,0,8.533-3.823,8.533-8.533s-3.814-8.533-8.533-8.533h-85.333
				c-4.71,0-8.533,3.823-8.533,8.533S259.823,426.667,264.533,426.667z"/>
			<path d="M469.333,119.467H384c-14.114,0-25.6-11.486-25.6-25.6V51.2c0-4.71-3.814-8.533-8.533-8.533
				c-4.719,0-8.533,3.823-8.533,8.533v42.667c0,23.526,19.14,42.667,42.667,42.667h76.8v332.8c0,14.353-11.238,25.6-25.6,25.6H76.8
				c-14.114,0-25.6-11.486-25.6-25.6V42.667c0-14.114,11.486-25.6,25.6-25.6c4.71,0,8.533-3.823,8.533-8.533S81.51,0,76.8,0
				C53.274,0,34.133,19.14,34.133,42.667v426.667C34.133,492.86,53.274,512,76.8,512h358.4c23.927,0,42.667-18.739,42.667-42.667
				V128C477.867,123.29,474.052,119.467,469.333,119.467z"/>
			<path d="M230.4,315.733c0,4.71,3.823,8.533,8.533,8.533h128c4.719,0,8.533-3.823,8.533-8.533s-3.814-8.533-8.533-8.533h-128
				C234.223,307.2,230.4,311.023,230.4,315.733z"/>
			<path d="M247.467,264.533c0,4.71,3.823,8.533,8.533,8.533h42.667c4.719,0,8.533-3.823,8.533-8.533
				c0-4.71-3.814-8.533-8.533-8.533H256C251.29,256,247.467,259.823,247.467,264.533z"/>
			<path d="M366.933,273.067c4.719,0,8.533-3.823,8.533-8.533c0-4.71-3.814-8.533-8.533-8.533H332.8
				c-4.719,0-8.533,3.823-8.533,8.533c0,4.71,3.814,8.533,8.533,8.533H366.933z"/>
			<path d="M281.6,204.8h-34.133c-4.71,0-8.533,3.823-8.533,8.533c0,4.71,3.823,8.533,8.533,8.533H281.6
				c4.719,0,8.533-3.823,8.533-8.533C290.133,208.623,286.319,204.8,281.6,204.8z"/>
		</g>
	</g>
</g>
<g>
</g>
<g>
</g>
<g>
</g>
<g>
</g>
<g>
</g>
<g>
</g>
<g>
</g>
<g>
</g>
<g>
</g>
<g>
</g>
<g>
</g>
<g>
</g>
<g>
</g>
<g>
</g>
<g>
</g>
</svg>
