<?xml version="1.0" encoding="iso-8859-1"?>
<!-- Generator: Adobe Illustrator 19.0.0, SVG Export Plug-In . SVG Version: 6.00 Build 0)  -->
<svg version="1.1" id="Layer_1" xmlns="http://www.w3.org/2000/svg" xmlns:xlink="http://www.w3.org/1999/xlink" x="0px" y="0px"
	 viewBox="0 0 512 512" style="enable-background:new 0 0 512 512;" xml:space="preserve">
<g>
	<g>
		<g>
			<path d="M213.333,238.933h51.2c4.71,0,8.533-3.823,8.533-8.533s-3.823-8.533-8.533-8.533h-51.2c-4.71,0-8.533,3.823-8.533,8.533
				S208.623,238.933,213.333,238.933z"/>
			<path d="M469.333,68.267h-256c-4.71,0-8.533,3.823-8.533,8.533s3.823,8.533,8.533,8.533H460.8v384
				c0,13.636-11.964,25.6-25.6,25.6H76.8c-13.636,0-25.6-11.964-25.6-25.6V77.508c5.487,3.703,11.554,5.879,17.067,6.955v384.87
				c0,4.71,3.823,8.533,8.533,8.533s8.533-3.823,8.533-8.533V76.8c0-4.676-3.814-8.482-8.491-8.533
				c-4.284-0.051-25.643-1.51-25.643-25.6v-8.533c0-9.412,7.654-17.067,17.067-17.067h401.067c4.71,0,8.533-3.823,8.533-8.533
				S474.044,0,469.333,0H68.267C49.442,0,34.133,15.309,34.133,34.133v435.2C34.133,492.459,53.675,512,76.8,512h358.4
				c23.125,0,42.667-19.541,42.667-42.667V76.8C477.867,72.09,474.044,68.267,469.333,68.267z"/>
			<path d="M460.8,42.667c0-4.71-3.823-8.533-8.533-8.533H179.2c-4.71,0-8.533,3.823-8.533,8.533v81.801L151.1,104.9
				c-3.337-3.337-8.73-3.337-12.066,0l-19.567,19.567V42.667c0-4.71-3.823-8.533-8.533-8.533H76.8c-4.71,0-8.533,3.823-8.533,8.533
				c0,4.71,3.823,8.533,8.533,8.533h25.6v93.867c0,3.448,2.082,6.562,5.265,7.885c3.191,1.314,6.852,0.589,9.301-1.852l28.1-28.1
				l28.1,28.1c1.63,1.63,3.814,2.5,6.033,2.5c1.101,0,2.21-0.213,3.268-0.649c3.183-1.323,5.265-4.437,5.265-7.885V51.2h264.533
				C456.977,51.2,460.8,47.377,460.8,42.667z"/>
			<path d="M153.6,179.2v136.533c0,4.71,3.823,8.533,8.533,8.533h187.733c4.71,0,8.533-3.823,8.533-8.533V179.2
				c0-4.71-3.823-8.533-8.533-8.533H162.133C157.423,170.667,153.6,174.49,153.6,179.2z M170.667,187.733h170.667V307.2H170.667
				V187.733z"/>
			<path d="M298.667,256h-85.333c-4.71,0-8.533,3.823-8.533,8.533c0,4.71,3.823,8.533,8.533,8.533h85.333
				c4.71,0,8.533-3.823,8.533-8.533C307.2,259.823,303.377,256,298.667,256z"/>
		</g>
	</g>
</g>
<g>
</g>
<g>
</g>
<g>
</g>
<g>
</g>
<g>
</g>
<g>
</g>
<g>
</g>
<g>
</g>
<g>
</g>
<g>
</g>
<g>
</g>
<g>
</g>
<g>
</g>
<g>
</g>
<g>
</g>
</svg>
