<?xml version="1.0" encoding="iso-8859-1"?>
<!-- Generator: Adobe Illustrator 19.0.0, SVG Export Plug-In . SVG Version: 6.00 Build 0)  -->
<svg version="1.1" id="Layer_1" xmlns="http://www.w3.org/2000/svg" xmlns:xlink="http://www.w3.org/1999/xlink" x="0px" y="0px"
	 viewBox="0 0 512 512" style="enable-background:new 0 0 512 512;" xml:space="preserve">
<g>
	<g>
		<g>
			<path d="M213.333,273.067c-4.719,0-8.533,3.823-8.533,8.533v25.6h-59.733c-4.719,0-8.533,3.823-8.533,8.533
				s3.814,8.533,8.533,8.533H230.4c32.93,0,59.733,26.795,59.733,59.733c0,4.71,3.814,8.533,8.533,8.533
				c4.719,0,8.533-3.823,8.533-8.533c0-42.342-34.449-76.8-76.8-76.8h-8.533v-17.067h8.533c4.719,0,8.533-3.823,8.533-8.533v-51.2
				c0-4.71-3.814-8.533-8.533-8.533H93.867c-4.719,0-8.533,3.823-8.533,8.533v51.2c0,4.71,3.814,8.533,8.533,8.533h8.533V307.2
				h-8.533c-42.351,0-76.8,34.458-76.8,76.8v85.333c0,23.526,19.14,42.667,42.667,42.667h204.8c23.526,0,42.667-19.14,42.667-42.667
				v-51.2c0-4.71-3.814-8.533-8.533-8.533H59.733c-4.719,0-8.533,3.823-8.533,8.533s3.814,8.533,8.533,8.533h230.4v42.667
				c0,14.114-11.486,25.6-25.6,25.6h-204.8c-14.114,0-25.6-11.486-25.6-25.6V384c0-32.939,26.803-59.733,59.733-59.733h17.067
				c4.719,0,8.533-3.823,8.533-8.533v-25.6H179.2c4.719,0,8.533-3.823,8.533-8.533s-3.814-8.533-8.533-8.533h-76.8v-34.133h119.467
				v34.133H213.333z"/>
			<path d="M494.933,196.267V76.8c0-42.342-34.449-76.8-76.8-76.8s-76.8,34.458-76.8,76.8v34.133c0,2.261,0.905,4.437,2.5,6.033
				L354.867,128l-11.034,11.034c-1.596,1.596-2.5,3.763-2.5,6.033v221.867c0,2.261,0.905,4.437,2.5,6.033l34.133,34.133
				c3.337,3.337,8.73,3.337,12.066,0c3.337-3.336,3.337-8.73,0-12.066L358.4,363.401v-78.268l51.2,51.2v167.134
				c0,4.71,3.814,8.533,8.533,8.533c4.719,0,8.533-3.823,8.533-8.533V336.333l51.2-51.2v78.268l-31.633,31.633
				c-3.336,3.336-3.336,8.73,0,12.066c1.664,1.664,3.849,2.5,6.033,2.5c2.185,0,4.369-0.836,6.033-2.5l34.133-34.133
				c1.596-1.596,2.5-3.772,2.5-6.033V230.4c0-2.261-0.905-4.437-2.5-6.033L481.4,213.333l11.034-11.034
				C494.029,200.704,494.933,198.528,494.933,196.267z M409.6,312.201l-51.2-51.2v-78.268l51.2,51.2V312.201z M418.133,34.133
				c-4.719,0-8.533,3.823-8.533,8.533v167.134l-51.2-51.2v-10.001l14.566-14.566c1.596-1.596,2.5-3.772,2.5-6.033
				s-0.905-4.429-2.5-6.033L358.4,107.401V76.8c0-32.939,26.803-59.733,59.733-59.733c31.804,0,57.796,25.003,59.571,56.371
				l-51.038,51.029V42.667C426.667,37.956,422.852,34.133,418.133,34.133z M477.867,192.734L463.3,207.292
				c-1.596,1.604-2.5,3.772-2.5,6.042c0,2.261,0.905,4.429,2.5,6.033l14.566,14.566v27.068l-51.2,51.2V148.599l51.2-51.2V192.734z"
				/>
		</g>
	</g>
</g>
<g>
</g>
<g>
</g>
<g>
</g>
<g>
</g>
<g>
</g>
<g>
</g>
<g>
</g>
<g>
</g>
<g>
</g>
<g>
</g>
<g>
</g>
<g>
</g>
<g>
</g>
<g>
</g>
<g>
</g>
</svg>
