<?xml version="1.0" encoding="iso-8859-1"?>
<!-- Generator: Adobe Illustrator 19.0.0, SVG Export Plug-In . SVG Version: 6.00 Build 0)  -->
<svg version="1.1" id="Layer_1" xmlns="http://www.w3.org/2000/svg" xmlns:xlink="http://www.w3.org/1999/xlink" x="0px" y="0px"
	 viewBox="0 0 512 512" style="enable-background:new 0 0 512 512;" xml:space="preserve">
<g>
	<g>
		<g>
			<path d="M298.662,0H179.196c-23.526,0-42.667,19.14-42.667,42.667v307.2c0,4.71,3.814,8.533,8.533,8.533h51.2
				c4.719,0,8.533-3.823,8.533-8.533s-3.814-8.533-8.533-8.533h-42.667v-17.067h8.533c4.719,0,8.533-3.823,8.533-8.533
				s-3.814-8.533-8.533-8.533h-8.533v-17.067h8.533c4.719,0,8.533-3.823,8.533-8.533s-3.814-8.533-8.533-8.533h-8.533V256h8.533
				c4.719,0,8.533-3.823,8.533-8.533s-3.814-8.533-8.533-8.533h-8.533v-17.067h42.667c4.719,0,8.533-3.823,8.533-8.533
				c0-4.71-3.814-8.533-8.533-8.533h-42.667v-17.067h8.533c4.719,0,8.533-3.823,8.533-8.533s-3.814-8.533-8.533-8.533h-8.533V153.6
				h8.533c4.719,0,8.533-3.823,8.533-8.533c0-4.71-3.814-8.533-8.533-8.533h-8.533v-17.067h8.533c4.719,0,8.533-3.823,8.533-8.533
				s-3.814-8.533-8.533-8.533h-8.533V85.333h42.667c4.719,0,8.533-3.823,8.533-8.533s-3.814-8.533-8.533-8.533h-42.667v-25.6
				c0-14.114,11.486-25.6,25.6-25.6h119.467c14.114,0,25.6,11.486,25.6,25.6v426.667c0,14.114-11.486,25.6-25.6,25.6H179.196
				c-14.114,0-25.6-11.486-25.6-25.6V384c0-4.71-3.814-8.533-8.533-8.533c-4.719,0-8.533,3.823-8.533,8.533v85.333
				c0,23.526,19.14,42.667,42.667,42.667h119.467c23.526,0,42.667-19.14,42.667-42.667V42.667C341.329,19.14,322.189,0,298.662,0z"
				/>
			<path d="M34.138,110.925v307.2c0,4.71,3.814,8.533,8.533,8.533s8.533-3.823,8.533-8.533v-307.2c0-4.71-3.814-8.533-8.533-8.533
				S34.138,106.214,34.138,110.925z"/>
			<path d="M50.3,4.71c-2.893-5.786-12.365-5.786-15.266,0L0.9,72.977c-0.589,1.178-0.896,2.492-0.896,3.814v392.533
				c0,23.526,19.14,42.667,42.667,42.667c23.526,0,42.667-19.14,42.667-42.667v-17.067c0-4.71-3.814-8.533-8.533-8.533H42.671
				c-4.719,0-8.533,3.823-8.533,8.533c0,4.71,3.814,8.533,8.533,8.533h25.6v8.533c0,14.114-11.486,25.6-25.6,25.6
				s-25.6-11.486-25.6-25.6V78.805l25.6-51.2l20.326,40.653H42.671c-4.719,0-8.533,3.823-8.533,8.533
				c0,4.71,3.814,8.533,8.533,8.533h25.6v332.8c0,4.71,3.814,8.533,8.533,8.533s8.533-3.823,8.533-8.533V76.809v-0.154
				c-0.026-1.382-0.375-2.688-0.973-3.831L50.3,4.71z"/>
			<path d="M273.062,426.667c0-18.825-15.309-34.133-34.133-34.133s-34.133,15.309-34.133,34.133s15.309,34.133,34.133,34.133
				S273.062,445.491,273.062,426.667z M221.862,426.667c0-9.412,7.654-17.067,17.067-17.067c9.404,0,17.067,7.654,17.067,17.067
				s-7.663,17.067-17.067,17.067C229.517,443.733,221.862,436.079,221.862,426.667z"/>
			<path d="M435.196,409.6c-4.719,0-8.533,3.823-8.533,8.533s3.814,8.533,8.533,8.533h68.267c4.719,0,8.533-3.823,8.533-8.533v-51.2
				c0-23.526-19.14-42.667-42.667-42.667h-34.133c-23.526,0-42.667,19.14-42.667,42.667v102.4c0,23.526,19.14,42.667,42.667,42.667
				h34.133c23.526,0,42.667-19.14,42.667-42.667v-17.067c0-4.71-3.814-8.533-8.533-8.533c-4.719,0-8.533,3.823-8.533,8.533v17.067
				c0,14.114-11.486,25.6-25.6,25.6h-34.133c-14.114,0-25.6-11.486-25.6-25.6v-102.4c0-14.114,11.486-25.6,25.6-25.6h34.133
				c14.114,0,25.6,11.486,25.6,25.6V409.6H435.196z"/>
		</g>
	</g>
</g>
<g>
</g>
<g>
</g>
<g>
</g>
<g>
</g>
<g>
</g>
<g>
</g>
<g>
</g>
<g>
</g>
<g>
</g>
<g>
</g>
<g>
</g>
<g>
</g>
<g>
</g>
<g>
</g>
<g>
</g>
</svg>
